<svg width="37" height="60" viewBox="0 0 37 60" fill="none" xmlns="http://www.w3.org/2000/svg">
<g clip-path="url(#clip0_2_259)">
<path d="M28.9125 57.4461C28.7882 56.2737 28.5533 54.8822 28.0954 53.6053C27.8902 53.0349 27.6474 52.5059 27.3454 51.9849C26.8441 51.1263 26.3211 50.5401 26.0606 50.2658C25.4783 49.652 24.9691 49.2888 24.4145 48.8961C23.7435 48.4204 22.7843 47.8125 21.5408 47.2322V44.9112C21.6336 44.9211 22.2435 44.9783 22.652 44.5303C23.0882 44.0526 23.1218 43.1941 22.652 42.5211C21.2033 42.5566 19.7566 42.5901 18.3079 42.6257C18.3474 47.7928 18.3849 52.9579 18.4244 58.125C18.4244 58.1941 27.9198 58.2632 28.8829 58.0007C28.877 57.8151 28.8869 57.6296 28.9145 57.448L28.9125 57.4461Z" fill="#2B2E5F"/>
<path d="M14.4574 42.5191C13.9877 43.1921 14.0212 44.0507 14.4574 44.5283C14.866 44.9763 15.4758 44.9191 15.5686 44.9092V47.2303C14.3232 47.8105 13.366 48.4184 12.6949 48.8941C12.1403 49.2868 11.6311 49.652 11.0489 50.2638C10.7883 50.5382 10.2653 51.1243 9.764 51.9829C9.46005 52.504 9.21729 53.0349 9.014 53.6033C8.56597 54.8526 8.3311 56.2125 8.20479 57.3671C8.20479 57.4618 8.19886 57.5546 8.189 57.6493C8.20676 57.7638 8.22452 57.8803 8.22847 57.9967C9.19755 58.2572 18.687 58.1882 18.687 58.1191C18.7265 52.952 18.764 47.7868 18.8035 42.6197C17.3548 42.5842 15.9081 42.5507 14.4594 42.5151V42.5191H14.4574Z" fill="#2B2E5F"/>
<path d="M9.08097 57.0336C15.2211 57.0138 21.3612 56.9941 27.5014 56.9763C27.5487 56.0783 27.4836 54.7954 26.9389 53.4059C26.5461 52.4053 25.7112 50.3408 24.0178 50.0349C22.6737 49.7921 21.4145 50.775 20.9428 51.1421C20.1829 51.7342 20.3033 51.9711 19.279 52.9658C18.3474 53.8717 17.7198 54.4796 16.7211 54.7638C15.5369 55.1013 14.4573 54.8013 13.6994 54.5921C13.2889 54.4776 12.6356 54.298 11.8974 53.8362C10.95 53.2441 10.8198 52.7882 10.431 52.8474C9.63162 52.9698 9.30004 55.0283 9.19544 55.6362C9.09478 56.2105 9.07899 56.698 9.08097 57.0316V57.0336Z" fill="white"/>
<path d="M28.8987 57.5546H8.19282C8.19084 57.5842 8.18887 57.6158 8.18492 57.6454C8.21453 57.823 8.23032 58.0026 8.22834 58.1842H28.8889C28.8691 57.975 28.8731 57.7638 28.8968 57.5546H28.8987Z" fill="#2B2E5F"/>
<path d="M10.2257 13.8868L17.6862 23.475L17.5441 41.996H16.6283C16.6086 41.6605 16.5711 41.3447 16.5119 41.0349C15.9968 38.2875 14.0606 36.4441 14.0606 36.4441C10.3145 32.5678 9.18557 28.5632 8.85005 26.5125C8.85005 26.4987 8.84412 26.4868 8.84412 26.4809C8.72176 25.7191 8.70794 25.2296 8.70202 25.127V25.1013L15.1579 28.7704L10.1704 23.8974C9.1461 22.8967 8.66057 21.4737 8.83426 20.0507C9.09478 17.8993 9.5961 15.8289 10.2257 13.8868Z" fill="#FFD541"/>
<path d="M27.4145 17.9033L18.9218 24.4875L18.7343 0C18.7343 0 20.7474 2.35263 22.8889 6.12434C23.5165 7.22763 23.5895 8.56382 23.0744 9.72434L21.5152 13.2336L24.3395 8.89342C24.7264 9.69276 25.1073 10.5316 25.4606 11.402L21.4362 17.9013L26.3428 13.8316C26.775 15.1342 27.1422 16.4941 27.4125 17.9013H27.4145V17.9033Z" fill="#00C3AC"/>
<path d="M17.8579 0L17.6941 21.9829L10.5632 12.7737C11.027 11.477 11.8639 9.69474 12.2507 8.89539L15.079 13.2336L13.5198 9.73026C13.0027 8.56974 13.0757 7.23355 13.7033 6.13026C15.8487 2.35263 17.8579 0 17.8579 0Z" fill="#FF7957"/>
<path d="M21.4362 28.7704L27.8921 25.1072V25.127C27.8862 25.2375 27.8724 25.7211 27.75 26.4809C27.75 26.4947 27.7441 26.4947 27.7362 26.5125C27.6533 27.0217 27.5171 27.6612 27.3099 28.3836C26.6783 30.5625 25.3421 33.5368 22.5316 36.4441C22.5316 36.4441 20.5974 38.2875 20.0803 41.029V41.0349C20.0231 41.3507 19.9777 41.6665 19.9639 41.9901H19.0481L18.9316 25.7013L27.606 18.9809C27.6119 19.0263 27.6198 19.0776 27.6257 19.129C27.6652 19.3421 27.6908 19.5553 27.7165 19.7665C27.7481 19.9737 27.7737 20.179 27.7935 20.3862C27.825 20.6822 27.8586 20.9862 27.8764 21.2822V21.2941C27.9356 21.9928 27.6652 22.6796 27.1619 23.1711L21.4323 28.7704H21.4362Z" fill="#FF4453"/>
<path d="M6.92963 32.2836C6.60002 32.2678 6.28424 32.2362 5.98424 32.1928C3.92766 31.8849 2.33884 30.2388 2.00529 28.1862C1.86516 27.3237 1.81384 26.4415 1.85529 25.5553C1.86318 25.3697 1.8849 25.1961 1.90068 25.0145C3.31779 26.8046 4.93424 27.6118 4.93424 27.6118C4.36779 27.15 3.90002 26.6309 3.51318 26.0901C2.37437 24.4994 2.21055 22.4112 2.97634 20.6112C4.15463 17.8342 6.48358 16.429 6.48358 16.429C3.3474 30.8428 14.3191 38.8303 14.3191 38.8303C10.5277 36.7263 6.98687 36.4974 5.10002 34.5119C4.4941 33.8744 3.97305 33.1757 3.53489 32.4316C5.44937 32.8283 6.93358 32.2836 6.93358 32.2836H6.92963Z" fill="#2B2E5F"/>
<path d="M29.6645 32.2836C29.9941 32.2678 30.3099 32.2362 30.6099 32.1928C32.6665 31.8849 34.2553 30.2388 34.5888 28.1862C34.729 27.3237 34.7803 26.4415 34.7388 25.5553C34.7309 25.3697 34.7092 25.1961 34.6934 25.0145C33.2763 26.8046 31.6599 27.6118 31.6599 27.6118C32.2263 27.15 32.6941 26.6309 33.0809 26.0901C34.2198 24.4994 34.3836 22.4112 33.6178 20.6112C32.4395 17.8342 30.1105 16.429 30.1105 16.429C33.2467 30.8428 22.275 38.8303 22.275 38.8303C26.0665 36.7263 29.6073 36.4974 31.4941 34.5119C32.1 33.8744 32.6211 33.1757 33.0592 32.4316C31.1448 32.8283 29.6606 32.2836 29.6606 32.2836H29.6645Z" fill="#2B2E5F"/>
</g>
<defs>
<clipPath id="clip0_2_259">
<rect width="36.7105" height="60" fill="white"/>
</clipPath>
</defs>
</svg>
