<svg width="12" height="12" viewBox="0 0 12 12" fill="none" xmlns="http://www.w3.org/2000/svg">
<path d="M3.75 0.75C3.35218 0.75 2.97064 0.908035 2.68934 1.18934C2.40804 1.47064 2.25 1.85218 2.25 2.25V3H9.75V2.25C9.75 1.85218 9.59196 1.47064 9.31066 1.18934C9.02936 0.908035 8.64782 0.75 8.25 0.75H3.75ZM8.25 6.75H3.75C3.55109 6.75 3.36032 6.82902 3.21967 6.96967C3.07902 7.11032 3 7.30109 3 7.5V9.75C3 9.94891 3.07902 10.1397 3.21967 10.2803C3.36032 10.421 3.55109 10.5 3.75 10.5H8.25C8.44891 10.5 8.63968 10.421 8.78033 10.2803C8.92098 10.1397 9 9.94891 9 9.75V7.5C9 7.30109 8.92098 7.11032 8.78033 6.96967C8.63968 6.82902 8.44891 6.75 8.25 6.75Z" fill="black" fill-opacity="0.5"/>
<path d="M0 5.25C0 4.85218 0.158035 4.47064 0.43934 4.18934C0.720644 3.90804 1.10218 3.75 1.5 3.75H10.5C10.8978 3.75 11.2794 3.90804 11.5607 4.18934C11.842 4.47064 12 4.85218 12 5.25V7.5C12 7.89782 11.842 8.27936 11.5607 8.56066C11.2794 8.84196 10.8978 9 10.5 9H9.75V7.5C9.75 7.10218 9.59196 6.72064 9.31066 6.43934C9.02936 6.15804 8.64783 6 8.25 6H3.75C3.35218 6 2.97064 6.15804 2.68934 6.43934C2.40804 6.72064 2.25 7.10218 2.25 7.5V9H1.5C1.10218 9 0.720644 8.84196 0.43934 8.56066C0.158035 8.27936 0 7.89782 0 7.5V5.25ZM1.875 6C1.97446 6 2.06984 5.96049 2.14016 5.89016C2.21049 5.81984 2.25 5.72446 2.25 5.625C2.25 5.52554 2.21049 5.43016 2.14016 5.35984C2.06984 5.28951 1.97446 5.25 1.875 5.25C1.77554 5.25 1.68016 5.28951 1.60984 5.35984C1.53951 5.43016 1.5 5.52554 1.5 5.625C1.5 5.72446 1.53951 5.81984 1.60984 5.89016C1.68016 5.96049 1.77554 6 1.875 6Z" fill="black" fill-opacity="0.5"/>
</svg>
