<svg width="28" height="28" viewBox="0 0 28 28" fill="none" xmlns="http://www.w3.org/2000/svg">
<g clip-path="url(#clip0_3_978)">
<path d="M8.75 1.75C7.82174 1.75 6.9315 2.11875 6.27513 2.77513C5.61875 3.4315 5.25 4.32174 5.25 5.25V7H22.75V5.25C22.75 4.32174 22.3813 3.4315 21.7249 2.77513C21.0685 2.11875 20.1783 1.75 19.25 1.75H8.75ZM19.25 15.75H8.75C8.28587 15.75 7.84075 15.9344 7.51256 16.2626C7.18437 16.5908 7 17.0359 7 17.5V22.75C7 23.2141 7.18437 23.6592 7.51256 23.9874C7.84075 24.3156 8.28587 24.5 8.75 24.5H19.25C19.7141 24.5 20.1592 24.3156 20.4874 23.9874C20.8156 23.6592 21 23.2141 21 22.75V17.5C21 17.0359 20.8156 16.5908 20.4874 16.2626C20.1592 15.9344 19.7141 15.75 19.25 15.75Z" fill="url(#paint0_linear_3_978)"/>
<path d="M0 12.25C0 11.3217 0.368749 10.4315 1.02513 9.77513C1.6815 9.11875 2.57174 8.75 3.5 8.75H24.5C25.4283 8.75 26.3185 9.11875 26.9749 9.77513C27.6312 10.4315 28 11.3217 28 12.25V17.5C28 18.4283 27.6312 19.3185 26.9749 19.9749C26.3185 20.6313 25.4283 21 24.5 21H22.75V17.5C22.75 16.5717 22.3812 15.6815 21.7249 15.0251C21.0685 14.3687 20.1783 14 19.25 14H8.75C7.82174 14 6.9315 14.3687 6.27513 15.0251C5.61875 15.6815 5.25 16.5717 5.25 17.5V21H3.5C2.57174 21 1.6815 20.6313 1.02513 19.9749C0.368749 19.3185 0 18.4283 0 17.5V12.25ZM4.375 14C4.60706 14 4.82962 13.9078 4.99372 13.7437C5.15781 13.5796 5.25 13.3571 5.25 13.125C5.25 12.8929 5.15781 12.6704 4.99372 12.5063C4.82962 12.3422 4.60706 12.25 4.375 12.25C4.14294 12.25 3.92038 12.3422 3.75628 12.5063C3.59219 12.6704 3.5 12.8929 3.5 13.125C3.5 13.3571 3.59219 13.5796 3.75628 13.7437C3.92038 13.9078 4.14294 14 4.375 14Z" fill="url(#paint1_linear_3_978)"/>
</g>
<defs>
<linearGradient id="paint0_linear_3_978" x1="6.1875" y1="3" x2="26.158" y2="17.917" gradientUnits="userSpaceOnUse">
<stop stop-color="#FA0014"/>
<stop offset="0.925" stop-color="#0513FD"/>
</linearGradient>
<linearGradient id="paint1_linear_3_978" x1="1.5" y1="9.42308" x2="9.90002" y2="28.067" gradientUnits="userSpaceOnUse">
<stop stop-color="#FA0014"/>
<stop offset="0.925" stop-color="#0513FD"/>
</linearGradient>
<clipPath id="clip0_3_978">
<rect width="28" height="28" fill="white"/>
</clipPath>
</defs>
</svg>
