<svg width="67" height="67" viewBox="0 0 67 67" fill="none" xmlns="http://www.w3.org/2000/svg">
<path d="M33.3603 50.25C34.3374 50.25 35.1638 49.9122 35.8393 49.2366C36.5149 48.5611 36.8518 47.7357 36.8499 46.7604C36.8481 45.7852 36.5112 44.9589 35.8393 44.2814C35.1675 43.604 34.3411 43.2671 33.3603 43.2708C32.3795 43.2746 31.5541 43.6124 30.8841 44.2842C30.2141 44.9561 29.8763 45.7815 29.8708 46.7604C29.8652 47.7394 30.203 48.5657 30.8841 49.2394C31.5653 49.9132 32.3907 50.25 33.3603 50.25ZM30.8478 39.5021H36.0124C36.0124 37.9667 36.1874 36.757 36.5373 35.8729C36.8871 34.9889 37.8754 33.7792 39.502 32.2438C40.7117 31.034 41.6655 29.882 42.3635 28.7877C43.0614 27.6933 43.4103 26.3794 43.4103 24.8458C43.4103 22.2403 42.4565 20.2396 40.5489 18.8438C38.6412 17.4479 36.3846 16.75 33.7791 16.75C31.127 16.75 28.9756 17.4479 27.3248 18.8438C25.674 20.2396 24.5219 21.9146 23.8687 23.8688L28.4749 25.6833C28.7076 24.8458 29.2315 23.9386 30.0466 22.9615C30.8618 21.9844 32.106 21.4958 33.7791 21.4958C35.268 21.4958 36.3846 21.9034 37.1291 22.7186C37.8735 23.5338 38.2458 24.429 38.2458 25.4042C38.2458 26.3347 37.9666 27.2076 37.4083 28.0228C36.8499 28.8379 36.152 29.5935 35.3145 30.2896C33.2673 32.1042 32.011 33.4767 31.5458 34.4073C31.0805 35.3379 30.8478 37.0361 30.8478 39.5021ZM33.4999 61.4167C29.6381 61.4167 26.009 60.6843 22.6124 59.2196C19.2159 57.7549 16.2614 55.7654 13.7489 53.2511C11.2364 50.7367 9.24778 47.7822 7.78309 44.3875C6.31839 40.9928 5.58512 37.3637 5.58326 33.5C5.58139 29.6363 6.31467 26.0072 7.78309 22.6125C9.25151 19.2179 11.2401 16.2633 13.7489 13.749C16.2577 11.2346 19.2122 9.24602 22.6124 7.78318C26.0127 6.32035 29.6418 5.58707 33.4999 5.58335C37.358 5.57963 40.9872 6.31291 44.3874 7.78318C47.7877 9.25346 50.7422 11.2421 53.251 13.749C55.7597 16.2559 57.7493 19.2104 59.2195 22.6125C60.6898 26.0146 61.4222 29.6438 61.4166 33.5C61.411 37.3562 60.6777 40.9854 59.2168 44.3875C57.7558 47.7896 55.7672 50.7441 53.251 53.2511C50.7347 55.758 47.7802 57.7475 44.3874 59.2196C40.9946 60.6918 37.3654 61.4241 33.4999 61.4167ZM33.4999 55.8333C39.7346 55.8333 45.0155 53.6698 49.3426 49.3427C53.6697 45.0156 55.8333 39.7347 55.8333 33.5C55.8333 27.2653 53.6697 21.9844 49.3426 17.6573C45.0155 13.3302 39.7346 11.1667 33.4999 11.1667C27.2652 11.1667 21.9843 13.3302 17.6572 17.6573C13.3301 21.9844 11.1666 27.2653 11.1666 33.5C11.1666 39.7347 13.3301 45.0156 17.6572 49.3427C21.9843 53.6698 27.2652 55.8333 33.4999 55.8333Z" fill="#FFD541"/>
</svg>
