<svg width="13" height="13" viewBox="0 0 13 13" fill="none" xmlns="http://www.w3.org/2000/svg">
<path d="M5.95833 7.44792H6.5V5.28125M8.66667 5.14583V4.33333M4.875 8.9375C5.6875 9.75 7.3125 9.75 8.125 8.9375M4.33333 5.14583V4.33333M5.09167 11.375C3.87833 11.375 3.27167 11.375 2.808 11.1388C2.40033 10.9311 2.06889 10.5997 1.86117 10.192C1.625 9.72833 1.625 9.12167 1.625 7.90833M11.375 7.90833C11.375 9.12167 11.375 9.72833 11.1388 10.192C10.9311 10.5997 10.5997 10.9311 10.192 11.1388C9.72833 11.375 9.12167 11.375 7.90833 11.375M7.90833 1.625C9.12167 1.625 9.72833 1.625 10.192 1.86117C10.5997 2.06889 10.9311 2.40033 11.1388 2.808C11.375 3.27167 11.375 3.87833 11.375 5.09167M5.09167 1.625C3.87833 1.625 3.27167 1.625 2.808 1.86117C2.40033 2.06889 2.06889 2.40033 1.86117 2.808C1.625 3.27167 1.625 3.87833 1.625 5.09167" stroke="black" stroke-opacity="0.5" stroke-width="0.8125" stroke-linecap="round" stroke-linejoin="round"/>
</svg>
