<svg width="12" height="12" viewBox="0 0 12 12" fill="none" xmlns="http://www.w3.org/2000/svg">
<path d="M9.225 7.95L6.62485 6L9.225 4.05C9.27157 4.01507 9.30938 3.96978 9.33541 3.91771C9.36145 3.86563 9.375 3.80822 9.375 3.75C9.375 3.69178 9.36145 3.63437 9.33541 3.5823C9.30938 3.53022 9.27157 3.48493 9.225 3.45L6.225 1.2C6.16929 1.15821 6.10304 1.13277 6.03368 1.12652C5.96432 1.12026 5.89459 1.13345 5.8323 1.16459C5.77001 1.19573 5.71762 1.24361 5.68101 1.30285C5.64439 1.36209 5.625 1.43036 5.625 1.5V5.25L3.225 3.45C3.14544 3.39033 3.04543 3.3647 2.94697 3.37877C2.84851 3.39283 2.75968 3.44544 2.7 3.525C2.64033 3.60456 2.61471 3.70458 2.62877 3.80303C2.64284 3.90149 2.69544 3.99033 2.775 4.05L5.37516 6L2.775 7.95C2.73561 7.97955 2.70241 8.01657 2.67732 8.05894C2.65223 8.10132 2.63573 8.14822 2.62877 8.19697C2.61471 8.29542 2.64033 8.39544 2.7 8.475C2.75968 8.55456 2.84851 8.60717 2.94697 8.62123C3.04543 8.6353 3.14544 8.60967 3.225 8.55L5.625 6.75V10.5C5.625 10.5696 5.64439 10.6379 5.68101 10.6971C5.71762 10.7564 5.77001 10.8043 5.8323 10.8354C5.89459 10.8666 5.96432 10.8797 6.03368 10.8735C6.10304 10.8672 6.16929 10.8418 6.225 10.8L9.225 8.55C9.27157 8.51507 9.30938 8.46978 9.33541 8.41771C9.36145 8.36563 9.375 8.30822 9.375 8.25C9.375 8.19178 9.36145 8.13437 9.33541 8.08229C9.30938 8.03022 9.27157 7.98493 9.225 7.95ZM6.375 2.25L8.37516 3.75L6.375 5.25V2.25ZM6.375 9.75V6.75L8.37516 8.25L6.375 9.75Z" fill="#0586FD"/>
</svg>
