<svg width="20" height="20" viewBox="0 0 20 20" fill="none" xmlns="http://www.w3.org/2000/svg">
<path fill-rule="evenodd" clip-rule="evenodd" d="M11.8992 1.79334C11.5909 1.66667 11.1992 1.66667 10.4167 1.66667C9.63419 1.66667 9.24335 1.66667 8.93419 1.79334C8.52373 1.96185 8.197 2.28648 8.02585 2.69584C7.94752 2.88167 7.91752 3.09917 7.90502 3.41501C7.89946 3.64384 7.83563 3.86748 7.71956 4.06477C7.60349 4.26206 7.43901 4.42649 7.24168 4.54251C7.04064 4.65426 6.81464 4.71346 6.58462 4.71462C6.35461 4.71579 6.12802 4.65888 5.92585 4.54917C5.64419 4.40084 5.44002 4.31917 5.23835 4.29251C4.79715 4.23457 4.35091 4.35317 3.99669 4.6225C3.73169 4.82417 3.53585 5.16084 3.14502 5.83334C2.75335 6.50584 2.55835 6.84167 2.51419 7.17084C2.45585 7.60917 2.57585 8.0525 2.84752 8.40334C2.97085 8.56334 3.14502 8.6975 3.41419 8.86584C3.81169 9.11334 4.06669 9.53501 4.06669 10C4.06669 10.465 3.81169 10.8867 3.41502 11.1333C3.14502 11.3025 2.97085 11.4367 2.84669 11.5967C2.71259 11.77 2.61416 11.9681 2.55709 12.1796C2.50002 12.3912 2.48544 12.612 2.51419 12.8292C2.55835 13.1575 2.75335 13.4942 3.14502 14.1667C3.53669 14.8392 3.73169 15.175 3.99669 15.3775C4.35002 15.6467 4.79669 15.765 5.23835 15.7075C5.44002 15.6808 5.64419 15.5992 5.92585 15.4508C6.12812 15.341 6.35487 15.284 6.58504 15.2852C6.81522 15.2863 7.04137 15.3456 7.24252 15.4575C7.64752 15.6908 7.88752 16.12 7.90502 16.585C7.91752 16.9017 7.94752 17.1183 8.02585 17.3042C8.19585 17.7125 8.52252 18.0375 8.93419 18.2067C9.24252 18.3333 9.63419 18.3333 10.4167 18.3333C11.1992 18.3333 11.5909 18.3333 11.8992 18.2067C12.3096 18.0382 12.6364 17.7135 12.8075 17.3042C12.8859 17.1183 12.9159 16.9017 12.9284 16.585C12.945 16.12 13.1859 15.69 13.5917 15.4575C13.7927 15.3458 14.0187 15.2866 14.2487 15.2854C14.4788 15.2842 14.7053 15.3411 14.9075 15.4508C15.1892 15.5992 15.3934 15.6808 15.595 15.7075C16.0367 15.7658 16.4834 15.6467 16.8367 15.3775C17.1017 15.1758 17.2975 14.8392 17.6884 14.1667C18.08 13.4942 18.275 13.1583 18.3192 12.8292C18.3478 12.6119 18.3331 12.3911 18.2759 12.1796C18.2187 11.968 18.1201 11.7699 17.9859 11.5967C17.8625 11.4367 17.6884 11.3025 17.4192 11.1342C17.0217 10.8867 16.7667 10.465 16.7667 10C16.7667 9.53501 17.0217 9.11334 17.4184 8.86667C17.6884 8.6975 17.8625 8.56334 17.9867 8.40334C18.1208 8.23005 18.2192 8.03191 18.2763 7.82036C18.3334 7.60882 18.3479 7.38805 18.3192 7.17084C18.275 6.8425 18.08 6.50584 17.6884 5.83334C17.2967 5.16084 17.1017 4.82501 16.8367 4.6225C16.4825 4.35317 16.0362 4.23457 15.595 4.29251C15.3934 4.31917 15.1892 4.40084 14.9075 4.54917C14.7052 4.65903 14.4785 4.71602 14.2483 4.71485C14.0182 4.71369 13.792 4.65441 13.5909 4.54251C13.3937 4.42639 13.2294 4.26192 13.1135 4.06463C12.9975 3.86735 12.9338 3.64376 12.9284 3.41501C12.9159 3.09834 12.8859 2.88167 12.8075 2.69584C12.7228 2.49312 12.599 2.30907 12.4431 2.15422C12.2873 1.99937 12.1024 1.87674 11.8992 1.79334ZM10.4167 12.5C11.8084 12.5 12.9359 11.3808 12.9359 10C12.9359 8.61917 11.8075 7.5 10.4167 7.5C9.02502 7.5 7.89752 8.61917 7.89752 10C7.89752 11.3808 9.02585 12.5 10.4167 12.5Z" fill="black" fill-opacity="0.59"/>
</svg>
